<svg xmlns="http://www.w3.org/2000/svg" width="44" height="40" viewBox="0 0 44 40"><g transform="translate(0 0)"><rect width="44" height="40" transform="translate(0 0)" fill="none"/><path d="M61.186,71.757H59.471l-.643-.574a11.292,11.292,0,0,0,3.429-8.04c0-6.891-6.214-12.443-13.929-12.443S34.4,56.251,34.4,63.143s6.214,12.443,13.929,12.443a14.356,14.356,0,0,0,9-3.063l.643.574v1.531L68.686,84.2,71.9,81.329Zm-12.857,0c-5.357,0-9.643-3.829-9.643-8.614s4.286-8.614,9.643-8.614,9.643,3.829,9.643,8.614S53.686,71.757,48.329,71.757Z" transform="translate(-31.4 -47.7)" fill="#fff"/></g></svg>